<svg width="40" height="40" viewBox="0 0 40 40" fill="none" xmlns="http://www.w3.org/2000/svg">
<mask id="mask0_173_762" style="mask-type:alpha" maskUnits="userSpaceOnUse" x="0" y="0" width="40" height="40">
<rect width="40" height="40" fill="#D9D9D9"/>
</mask>
<g mask="url(#mask0_173_762)">
<path d="M1.66797 30.001C1.91797 27.0288 2.82769 24.2926 4.39714 21.7926C5.96658 19.2926 8.05686 17.3065 10.668 15.8343L7.58464 10.501C7.41797 10.251 7.3763 9.98709 7.45964 9.70931C7.54297 9.43153 7.72352 9.2232 8.0013 9.08431C8.22352 8.94542 8.47352 8.91764 8.7513 9.00098C9.02908 9.08431 9.2513 9.25098 9.41797 9.50098L12.5013 14.8343C14.8902 13.8343 17.3902 13.3343 20.0013 13.3343C22.6124 13.3343 25.1124 13.8343 27.5013 14.8343L30.5846 9.50098C30.7513 9.25098 30.9735 9.08431 31.2513 9.00098C31.5291 8.91764 31.7791 8.94542 32.0013 9.08431C32.2791 9.2232 32.4596 9.43153 32.543 9.70931C32.6263 9.98709 32.5846 10.251 32.418 10.501L29.3346 15.8343C31.9457 17.3065 34.036 19.2926 35.6055 21.7926C37.1749 24.2926 38.0846 27.0288 38.3346 30.001H1.66797ZM11.668 25.4176C12.2513 25.4176 12.7444 25.2163 13.1471 24.8135C13.5499 24.4107 13.7513 23.9176 13.7513 23.3343C13.7513 22.751 13.5499 22.2579 13.1471 21.8551C12.7444 21.4524 12.2513 21.251 11.668 21.251C11.0846 21.251 10.5916 21.4524 10.1888 21.8551C9.78603 22.2579 9.58464 22.751 9.58464 23.3343C9.58464 23.9176 9.78603 24.4107 10.1888 24.8135C10.5916 25.2163 11.0846 25.4176 11.668 25.4176ZM28.3346 25.4176C28.918 25.4176 29.411 25.2163 29.8138 24.8135C30.2166 24.4107 30.418 23.9176 30.418 23.3343C30.418 22.751 30.2166 22.2579 29.8138 21.8551C29.411 21.4524 28.918 21.251 28.3346 21.251C27.7513 21.251 27.2582 21.4524 26.8555 21.8551C26.4527 22.2579 26.2513 22.751 26.2513 23.3343C26.2513 23.9176 26.4527 24.4107 26.8555 24.8135C27.2582 25.2163 27.7513 25.4176 28.3346 25.4176Z" fill="white"/>
</g>
</svg>
