<svg width="39" height="45" viewBox="0 0 39 45" fill="none" xmlns="http://www.w3.org/2000/svg">
<path fill-rule="evenodd" clip-rule="evenodd" d="M19.7994 11.9049C21.7164 12.0652 23.6335 10.9432 24.8316 9.5206C26.0098 8.05796 26.7886 6.09443 26.5889 4.09082C24.8915 4.17096 22.7948 5.21284 21.5966 6.67547C20.4983 7.93775 19.5598 9.98143 19.7994 11.9049ZM22.0982 13.2846C23.3429 12.7942 24.8839 12.1871 26.5728 12.2846C27.6511 12.3648 30.7662 12.6853 32.7631 15.6507C32.754 15.6576 32.7337 15.6708 32.7036 15.6904C32.2096 16.0128 29.0712 18.0606 29.1088 22.1023C29.1463 26.9176 33.0556 28.7133 33.5671 28.9482C33.6005 28.9635 33.6194 28.9722 33.6218 28.9746C33.6196 28.9811 33.6157 28.994 33.6098 29.013C33.5078 29.3442 32.8354 31.5268 31.3054 33.7633C29.8876 35.847 28.4299 37.8907 26.1135 37.9308C25.0234 37.9503 24.2891 37.6319 23.5245 37.3003C22.7203 36.9516 21.8826 36.5883 20.5621 36.5883C19.1942 36.5883 18.3182 36.9613 17.4749 37.3204C16.7424 37.6322 16.0346 37.9336 15.0507 37.9708C12.8142 38.051 11.1168 35.7669 9.69901 33.6831C6.80351 29.4755 4.58696 21.8218 7.5823 16.6525C9.04003 14.0678 11.6959 12.4449 14.5515 12.4048C15.7973 12.3821 16.9853 12.8556 18.0244 13.2698C18.8174 13.5859 19.5237 13.8675 20.1028 13.8675C20.6189 13.8675 21.2972 13.6002 22.0982 13.2846Z" fill="white"/>
</svg>
