<svg width="16" height="16" viewBox="0 0 16 16" fill="none" xmlns="http://www.w3.org/2000/svg">
<path d="M14.7104 3.20986C14.6175 3.11613 14.5069 3.04174 14.385 2.99097C14.2632 2.9402 14.1324 2.91406 14.0004 2.91406C13.8684 2.91406 13.7377 2.9402 13.6159 2.99097C13.494 3.04174 13.3834 3.11613 13.2904 3.20986L5.84044 10.6699L2.71044 7.52986C2.61392 7.43662 2.49998 7.36331 2.37512 7.3141C2.25026 7.2649 2.11694 7.24077 1.98276 7.24309C1.84858 7.24541 1.71617 7.27414 1.59309 7.32763C1.47001 7.38113 1.35868 7.45834 1.26544 7.55486C1.1722 7.65138 1.09889 7.76532 1.04968 7.89018C1.00048 8.01503 0.976347 8.14836 0.978669 8.28254C0.98099 8.41672 1.00972 8.54913 1.06321 8.67221C1.1167 8.79529 1.19392 8.90662 1.29044 8.99986L5.13044 12.8399C5.2234 12.9336 5.334 13.008 5.45586 13.0588C5.57772 13.1095 5.70843 13.1357 5.84044 13.1357C5.97245 13.1357 6.10316 13.1095 6.22502 13.0588C6.34687 13.008 6.45748 12.9336 6.55044 12.8399L14.7104 4.67986C14.8119 4.58622 14.893 4.47257 14.9484 4.34607C15.0038 4.21957 15.0324 4.08296 15.0324 3.94486C15.0324 3.80676 15.0038 3.67015 14.9484 3.54365C14.893 3.41715 14.8119 3.3035 14.7104 3.20986Z" fill="white"/>
</svg>
