<svg width="32" height="32" viewBox="0 0 32 32" fill="none" xmlns="http://www.w3.org/2000/svg">
<path d="M16.237 16.1046L15.9417 16.3603L16.2975 16.5214C18.1203 17.3468 19.6667 18.6796 20.752 20.3606C21.8372 22.0417 22.4154 23.9997 22.4173 26.0006C22.4173 26.2878 22.3031 26.5633 22.1 26.7664C21.8969 26.9695 21.6213 27.0837 21.334 27.0837C21.0467 27.0837 20.7711 26.9695 20.568 26.7664C20.3648 26.5632 20.2507 26.2876 20.2507 26.0003C20.2507 23.8123 19.3815 21.7139 17.8343 20.1667C16.2871 18.6195 14.1887 17.7503 12.0007 17.7503C9.81262 17.7503 7.7142 18.6195 6.16702 20.1667C4.61985 21.7139 3.75065 23.8123 3.75065 26.0003C3.75065 26.2876 3.63651 26.5632 3.43335 26.7664C3.23019 26.9695 2.95464 27.0837 2.66732 27.0837C2.38 27.0837 2.10445 26.9695 1.90128 26.7664C1.69815 26.5632 1.58401 26.2877 1.58398 26.0004C1.58592 23.9996 2.16408 22.0416 3.24932 20.3606C4.33459 18.6796 5.88104 17.3468 7.70378 16.5214L8.0596 16.3603L7.76427 16.1046C7.07995 15.5123 6.53106 14.7796 6.15487 13.9564C5.77867 13.1332 5.58397 12.2387 5.58398 11.3337C5.58398 9.63185 6.26002 7.99975 7.46338 6.79639C8.66674 5.59303 10.2988 4.91699 12.0007 4.91699C13.7025 4.91699 15.3346 5.59303 16.5379 6.79639C17.7413 7.99975 18.4173 9.63185 18.4173 11.3337C18.4173 12.2387 18.2226 13.1332 17.8464 13.9564C17.4702 14.7796 16.9214 15.5123 16.237 16.1046ZM24.8004 15.5943L24.6039 15.8155L24.8548 15.9723C26.5538 17.0342 27.9531 18.5128 28.9196 20.2677C29.8862 22.0226 30.388 23.9955 30.3773 25.999V26.0003C30.3773 26.2876 30.2632 26.5632 30.06 26.7664C29.8569 26.9695 29.5813 27.0837 29.294 27.0837C29.0067 27.0837 28.7311 26.9695 28.528 26.7664C28.325 26.5634 28.2109 26.2883 28.2107 26.0013C28.2249 24.1752 27.7171 22.3831 26.7471 20.8359C25.778 19.2903 24.388 18.0534 22.7402 17.2705L22.5829 17.1858L22.0727 16.8456L22.0714 16.8448C21.9177 16.7437 21.7923 16.6051 21.707 16.4421C21.6218 16.2792 21.5794 16.0973 21.5839 15.9135C21.5888 15.7282 21.6411 15.5472 21.736 15.3878C21.8308 15.2285 21.9649 15.0962 22.1256 15.0035L22.1257 15.0035C22.7701 14.6315 23.3055 14.0967 23.6784 13.4528C24.0513 12.8089 24.2486 12.0784 24.2507 11.3343V11.3337C24.2507 10.2065 23.8029 9.12548 23.0059 8.32846C22.2088 7.53143 21.1278 7.08366 20.0007 7.08366C19.7133 7.08366 19.4378 6.96952 19.2346 6.76636C19.0315 6.56319 18.9173 6.28764 18.9173 6.00033C18.9173 5.71301 19.0315 5.43746 19.2346 5.23429C19.4378 5.03113 19.7133 4.91699 20.0007 4.91699H20.0007C21.2376 4.91666 22.4482 5.27382 23.4869 5.94548C24.5255 6.61715 25.3479 7.57468 25.855 8.70283C26.3621 9.83097 26.5324 11.0816 26.3453 12.3043C26.1582 13.5269 25.6217 14.6695 24.8004 15.5943ZM9.63948 14.8674C10.3384 15.3344 11.1601 15.5837 12.0007 15.5837C13.1278 15.5837 14.2088 15.1359 15.0059 14.3389C15.8029 13.5418 16.2507 12.4608 16.2507 11.3337C16.2507 10.4931 16.0014 9.67139 15.5344 8.97249C15.0674 8.27358 14.4036 7.72884 13.6271 7.40717C12.8505 7.0855 11.9959 7.00133 11.1715 7.16532C10.3471 7.32931 9.58982 7.73408 8.99545 8.32846C8.40107 8.92283 7.9963 9.68011 7.83231 10.5045C7.66833 11.3289 7.75249 12.1835 8.07416 12.9601C8.39584 13.7367 8.94057 14.4004 9.63948 14.8674Z" fill="#9A9A9A" stroke="#EFEFEF" stroke-width="0.5"/>
</svg>
