<svg width="14" height="15" viewBox="0 0 14 15" fill="none" xmlns="http://www.w3.org/2000/svg">
<path d="M11.9591 8.16625C11.8124 8.16625 11.6591 8.11959 11.5124 8.08625C11.2154 8.0208 10.9235 7.93391 10.6391 7.82625C10.3298 7.71374 9.98986 7.71958 9.68463 7.84266C9.3794 7.96573 9.13048 8.19734 8.98576 8.49292L8.83909 8.79292C8.18976 8.4317 7.59308 7.98307 7.06576 7.45959C6.54227 6.93226 6.09364 6.33558 5.73242 5.68625L6.01242 5.49959C6.308 5.35486 6.53961 5.10594 6.66269 4.80071C6.78576 4.49549 6.7916 4.15553 6.67909 3.84625C6.57324 3.5612 6.48638 3.26945 6.41909 2.97292C6.38576 2.82625 6.35909 2.67292 6.33909 2.51959C6.25813 2.05 6.01217 1.62475 5.6455 1.32041C5.27884 1.01608 4.81555 0.852659 4.33909 0.859587H2.33909C2.05178 0.856889 1.76726 0.916129 1.5049 1.03327C1.24254 1.15042 1.0085 1.32272 0.818711 1.53844C0.628924 1.75417 0.487847 2.00825 0.405083 2.2834C0.322318 2.55854 0.29981 2.84829 0.339091 3.13292C0.694249 5.92584 1.96978 8.52084 3.96419 10.508C5.95861 12.4952 8.55823 13.7613 11.3524 14.1063H11.6058C12.0974 14.107 12.572 13.9266 12.9391 13.5996C13.15 13.4109 13.3185 13.1797 13.4334 12.9211C13.5483 12.6626 13.6071 12.3825 13.6058 12.0996V10.0996C13.5976 9.63651 13.429 9.19062 13.1286 8.83803C12.8283 8.48544 12.415 8.248 11.9591 8.16625ZM12.2924 12.1663C12.2923 12.2609 12.272 12.3545 12.2329 12.4407C12.1939 12.5269 12.1369 12.6038 12.0658 12.6663C11.9915 12.7309 11.9044 12.7792 11.8102 12.8079C11.716 12.8366 11.6168 12.8452 11.5191 12.8329C9.02236 12.5128 6.70325 11.3706 4.92757 9.58645C3.15189 7.80232 2.0207 5.47781 1.71242 2.97959C1.70181 2.88193 1.71111 2.78314 1.73976 2.68918C1.7684 2.59522 1.8158 2.50804 1.87909 2.43292C1.94156 2.36181 2.01846 2.30481 2.10468 2.26573C2.19089 2.22665 2.28443 2.20637 2.37909 2.20625H4.37909C4.53412 2.2028 4.68551 2.25351 4.80719 2.34963C4.92887 2.44576 5.01323 2.5813 5.04576 2.73292C5.07242 2.91514 5.10576 3.09514 5.14576 3.27292C5.22277 3.62435 5.32526 3.96971 5.45242 4.30625L4.51909 4.73959C4.43929 4.7762 4.36751 4.82822 4.30786 4.89265C4.24822 4.95708 4.20189 5.03266 4.17154 5.11505C4.14118 5.19744 4.1274 5.28501 4.13099 5.37273C4.13457 5.46046 4.15545 5.54662 4.19242 5.62625C5.15189 7.68142 6.80392 9.33345 8.85909 10.2929C9.0214 10.3596 9.20345 10.3596 9.36576 10.2929C9.4489 10.2632 9.5253 10.2172 9.59054 10.1577C9.65577 10.0982 9.70853 10.0263 9.74576 9.94625L10.1591 9.01292C10.5037 9.13617 10.8555 9.23858 11.2124 9.31959C11.3902 9.35959 11.5702 9.39292 11.7524 9.41959C11.904 9.45211 12.0396 9.53648 12.1357 9.65816C12.2318 9.77984 12.2825 9.93122 12.2791 10.0863L12.2924 12.1663Z" fill="#4766AF"/>
</svg>
