<svg width="13" height="15" viewBox="0 0 13 15" fill="none" xmlns="http://www.w3.org/2000/svg">
<g clip-path="url(#clip0_105_680)">
<path d="M12 3.5H9.722C9.8945 3.2045 10 2.866 10 2.5C10 1.397 9.103 0.5 8 0.5C7.4 0.5 6.867 0.771 6.5 1.191C6.133 0.771 5.6 0.5 5 0.5C3.897 0.5 3 1.397 3 2.5C3 2.866 3.106 3.2045 3.278 3.5H1C0.4485 3.5 0 3.9485 0 4.5V5.5C0 5.8685 0.2025 6.1875 0.5 6.361V13C0.5 13.827 1.173 14.5 2 14.5H11C11.827 14.5 12.5 13.827 12.5 13V6.361C12.7975 6.1875 13 5.8685 13 5.5V4.5C13 3.9485 12.5515 3.5 12 3.5ZM7 2.5C7 1.9485 7.4485 1.5 8 1.5C8.5515 1.5 9 1.9485 9 2.5C9 3.0515 8.5515 3.5 8 3.5H7V2.5ZM4 2.5C4 1.9485 4.4485 1.5 5 1.5C5.5515 1.5 6 1.9485 6 2.5V3.5H5C4.4485 3.5 4 3.0515 4 2.5ZM6 13.5H2C1.7245 13.5 1.5 13.2755 1.5 13V6.5H6V13.5ZM6 5.5H1V4.5H6V5.5ZM11.5 13C11.5 13.2755 11.2755 13.5 11 13.5H7V6.5H11.5V13ZM7 5.5V4.5H12V5.5H7Z" fill="white"/>
</g>
<defs>
<clipPath id="clip0_105_680">
<rect width="13" height="15" fill="white"/>
</clipPath>
</defs>
</svg>
