<svg width="24" height="25" viewBox="0 0 24 25" fill="none" xmlns="http://www.w3.org/2000/svg">
<path d="M8.92982 7.50007C8.92982 5.69305 10.1579 4.46498 11.9649 4.46498C13.7719 4.46498 15 5.69305 15 7.50007C15 9.30709 13.7719 10.5352 11.9649 10.5352C10.1579 10.5352 8.92982 9.30709 8.92982 7.50007ZM7 7.50007C7 10.2369 9.22807 12.465 11.9649 12.465C14.7018 12.465 16.9298 10.2369 16.9298 7.50007C16.9298 4.76323 14.7018 2.53516 11.9649 2.53516C9.22807 2.53516 7 4.76323 7 7.50007ZM3.92982 18.5001C3.92982 16.9211 7.21053 15.465 11.9649 15.465C16.7193 15.465 20 16.9211 20 18.5001C20 19.7457 19.2105 20.5352 17.9649 20.5352H5.96491C4.7193 20.5352 3.92982 19.7457 3.92982 18.5001ZM2 18.5001C2 20.6755 3.78947 22.465 5.96491 22.465H17.9649C20.1404 22.465 21.9298 20.6755 21.9298 18.5001C21.9298 15.5176 17.2807 13.5352 11.9649 13.5352C6.64912 13.5352 2 15.5176 2 18.5001Z" fill="#4766AF"/>
</svg>
