<svg width="30" height="36" viewBox="0 0 30 36" fill="none" xmlns="http://www.w3.org/2000/svg">
<path d="M16.1178 24.8597L9.38327 26.6549C9.06947 26.7385 10.508 27.5648 10.4239 27.2526L8.61935 20.5528C8.56351 20.2974 8.40228 20.083 8.15743 19.9424C7.68303 19.6699 7.05544 19.8372 6.78155 20.3092C6.64019 20.5528 6.60831 20.8186 6.68829 21.0676L8.49281 27.7673C8.64567 28.3829 9.2884 28.7521 9.90069 28.576L16.6353 26.7808C16.8919 26.7252 17.1075 26.5648 17.2488 26.3212C17.5227 25.8493 17.3545 25.2249 16.8802 24.9525C16.6353 24.8118 16.368 24.7801 16.1178 24.8597Z" fill="#474747"/>
<path d="M13.8822 11.1403L20.6167 9.3451C20.9305 9.26146 19.492 8.43524 19.5761 8.74741L21.3806 15.4472C21.4365 15.7026 21.5977 15.917 21.8426 16.0576C22.317 16.3301 22.9446 16.1628 23.2185 15.6908C23.3598 15.4472 23.3917 15.1814 23.3117 14.9324L21.5072 8.23266C21.3543 7.6171 20.7116 7.24794 20.0993 7.42402L13.3647 9.21922C13.1081 9.27478 12.8925 9.43517 12.7512 9.67876C12.4773 10.1507 12.6455 10.7751 13.1198 11.0475C13.3647 11.1882 13.632 11.2199 13.8822 11.1403Z" fill="#474747"/>
</svg>
