<svg width="17" height="17" viewBox="0 0 17 17" fill="none" xmlns="http://www.w3.org/2000/svg">
<path d="M15.2104 3.70986C15.1175 3.61613 15.0069 3.54174 14.885 3.49097C14.7632 3.4402 14.6324 3.41406 14.5004 3.41406C14.3684 3.41406 14.2377 3.4402 14.1159 3.49097C13.994 3.54174 13.8834 3.61613 13.7904 3.70986L6.34044 11.1699L3.21044 8.02986C3.11392 7.93662 2.99998 7.86331 2.87512 7.8141C2.75026 7.7649 2.61694 7.74077 2.48276 7.74309C2.34858 7.74541 2.21617 7.77414 2.09309 7.82763C1.97001 7.88113 1.85868 7.95834 1.76544 8.05486C1.6722 8.15138 1.59889 8.26532 1.54968 8.39018C1.50048 8.51503 1.47635 8.64836 1.47867 8.78254C1.48099 8.91672 1.50972 9.04913 1.56321 9.17221C1.6167 9.29529 1.69392 9.40662 1.79044 9.49986L5.63044 13.3399C5.7234 13.4336 5.834 13.508 5.95586 13.5588C6.07772 13.6095 6.20843 13.6357 6.34044 13.6357C6.47245 13.6357 6.60316 13.6095 6.72502 13.5588C6.84687 13.508 6.95748 13.4336 7.05044 13.3399L15.2104 5.17986C15.3119 5.08622 15.393 4.97257 15.4484 4.84607C15.5038 4.71957 15.5324 4.58296 15.5324 4.44486C15.5324 4.30676 15.5038 4.17015 15.4484 4.04365C15.393 3.91715 15.3119 3.8035 15.2104 3.70986Z" fill="#4766AF"/>
</svg>
