<svg width="17" height="17" viewBox="0 0 17 17" fill="none" xmlns="http://www.w3.org/2000/svg">
<path d="M12.7982 5.79825L7.90351 10.693C7.67544 10.9211 9.32456 10.9211 9.09649 10.693L4.20175 5.79825C4.02632 5.60526 3.7807 5.5 3.5 5.5C2.95614 5.5 2.5 5.95614 2.5 6.5C2.5 6.7807 2.60526 7.02632 2.79825 7.20175L7.69298 12.0965C8.13158 12.5526 8.86842 12.5526 9.30702 12.0965L14.2018 7.20175C14.3947 7.02632 14.5 6.7807 14.5 6.5C14.5 5.95614 14.0439 5.5 13.5 5.5C13.2193 5.5 12.9737 5.60526 12.7982 5.79825Z" fill="white"/>
</svg>
