<svg width="24" height="24" viewBox="0 0 24 24" fill="none" xmlns="http://www.w3.org/2000/svg">
<path d="M13 8C13 5.24 10.54 3 7.5 3C4.46 3 2 5.24 2 8H4L5 7L6 8H10M13 7.14C14.0126 6.39135 15.2407 5.99134 16.5 6C19.54 6 22 8.24 22 11H19L18 10L17 11H14" stroke="#474747" stroke-width="1.6" stroke-linecap="round" stroke-linejoin="round"/>
<path d="M5.89009 9.71046C3.74009 11.8605 3.59009 15.1805 5.54009 17.1405L9.78009 12.8905L10.4801 12.1905L11.1901 11.4805L13.3101 9.36046C11.3601 7.40046 8.04009 7.56046 5.89009 9.71046Z" stroke="#474747" stroke-width="1.6" stroke-linecap="round" stroke-linejoin="round"/>
<path d="M11 15.5C11.5 18 10.83 20 10 22H14C16 16.5 13.5 10 13 8" stroke="#474747" stroke-width="1.5" stroke-linecap="round" stroke-linejoin="round"/>
</svg>
