<svg width="24" height="24" viewBox="0 0 24 24" fill="none" xmlns="http://www.w3.org/2000/svg">
<rect width="24" height="24" rx="8" fill="#E9E9E9"/>
<path d="M13.4108 7.0003L9.1708 11.2903C9.07707 11.3833 9.00268 11.4939 8.95191 11.6157C8.90114 11.7376 8.875 11.8683 8.875 12.0003C8.875 12.1323 8.90114 12.263 8.95191 12.3849C9.00268 12.5067 9.07707 12.6173 9.1708 12.7103L13.4108 16.9503C13.5038 17.044 13.6144 17.1184 13.7362 17.1692C13.8581 17.22 13.9888 17.2461 14.1208 17.2461C14.2528 17.2461 14.3835 17.22 14.5054 17.1692C14.6272 17.1184 14.7378 17.044 14.8308 16.9503C15.017 16.7629 15.1216 16.5095 15.1216 16.2453C15.1216 15.9811 15.017 15.7277 14.8308 15.5403L11.2908 12.0003L14.8308 8.4603C15.0155 8.27404 15.1197 8.02264 15.1208 7.7603C15.1216 7.62869 15.0963 7.49823 15.0466 7.37639C14.9968 7.25455 14.9235 7.14373 14.8308 7.05029C14.7412 6.95322 14.6332 6.87487 14.5131 6.81976C14.3931 6.76465 14.2633 6.73389 14.1312 6.72924C13.9992 6.72459 13.8675 6.74615 13.7439 6.79267C13.6202 6.8392 13.507 6.90976 13.4108 7.0003Z" fill="#474747"/>
</svg>
