<svg width="25" height="24" viewBox="0 0 25 24" fill="none" xmlns="http://www.w3.org/2000/svg">
<rect width="24" height="24" rx="8" transform="matrix(1 0 0 -1 0.5 24)" fill="#4766AF" fill-opacity="0.3"/>
<path d="M13.9108 16.9997L9.6708 12.7097C9.57707 12.6167 9.50268 12.5061 9.45191 12.3843C9.40114 12.2624 9.375 12.1317 9.375 11.9997C9.375 11.8677 9.40114 11.737 9.45191 11.6151C9.50268 11.4933 9.57707 11.3827 9.6708 11.2897L13.9108 7.0497C14.0038 6.95598 14.1144 6.88158 14.2362 6.83081C14.3581 6.78004 14.4888 6.75391 14.6208 6.75391C14.7528 6.75391 14.8835 6.78004 15.0054 6.83081C15.1272 6.88158 15.2378 6.95598 15.3308 7.0497C15.517 7.23707 15.6216 7.49052 15.6216 7.7547C15.6216 8.01889 15.517 8.27234 15.3308 8.4597L11.7908 11.9997L15.3308 15.5397C15.5155 15.726 15.6197 15.9774 15.6208 16.2397C15.6216 16.3713 15.5963 16.5018 15.5466 16.6236C15.4968 16.7454 15.4235 16.8563 15.3308 16.9497C15.2412 17.0468 15.1332 17.1251 15.0131 17.1802C14.8931 17.2353 14.7633 17.2661 14.6312 17.2708C14.4992 17.2754 14.3675 17.2539 14.2439 17.2073C14.1202 17.1608 14.007 17.0902 13.9108 16.9997Z" fill="#4766AF"/>
</svg>
