<svg width="16" height="16" viewBox="0 0 16 16" fill="none" xmlns="http://www.w3.org/2000/svg">
<path d="M2.86485 3.80149L12.1982 13.1348C12.3151 13.2635 12.4789 13.3337 12.666 13.3337C13.0286 13.3337 13.3327 13.0296 13.3327 12.667C13.3327 12.4799 13.2625 12.3161 13.1339 12.1992L3.80052 2.86582C3.68356 2.73717 3.51982 2.66699 3.33268 2.66699C2.97011 2.66699 2.66602 2.97109 2.66602 3.33366C2.66602 3.52079 2.73619 3.68454 2.86485 3.80149ZM12.1982 2.86582L2.86485 12.1992C2.73619 12.3161 2.66602 12.4799 2.66602 12.667C2.66602 13.0296 2.97011 13.3337 3.33268 13.3337C3.51982 13.3337 3.68356 13.2635 3.80052 13.1348L13.1339 3.80149C13.2625 3.68454 13.3327 3.52079 13.3327 3.33366C13.3327 2.97109 13.0286 2.66699 12.666 2.66699C12.4789 2.66699 12.3151 2.73717 12.1982 2.86582Z" fill="white"/>
</svg>
