<svg width="16" height="17" viewBox="0 0 16 17" fill="none" xmlns="http://www.w3.org/2000/svg">
<path d="M14.6124 8.23464C13.2657 5.10797 10.7324 3.16797 7.99907 3.16797C5.26573 3.16797 2.7324 5.10797 1.38573 8.23464C1.34903 8.31875 1.33008 8.40953 1.33008 8.5013C1.33008 8.59307 1.34903 8.68386 1.38573 8.76797C2.7324 11.8946 5.26573 13.8346 7.99907 13.8346C10.7324 13.8346 13.2657 11.8946 14.6124 8.76797C14.6491 8.68386 14.6681 8.59307 14.6681 8.5013C14.6681 8.40953 14.6491 8.31875 14.6124 8.23464ZM7.99907 12.5013C5.87907 12.5013 3.88573 10.9746 2.7324 8.5013C3.88573 6.02797 5.87907 4.5013 7.99907 4.5013C10.1191 4.5013 12.1124 6.02797 13.2657 8.5013C12.1124 10.9746 10.1191 12.5013 7.99907 12.5013ZM7.99907 5.83464C7.47165 5.83464 6.95608 5.99103 6.51755 6.28405C6.07902 6.57707 5.73722 6.99354 5.53539 7.48081C5.33356 7.96808 5.28075 8.50426 5.38364 9.02154C5.48653 9.53883 5.74051 10.014 6.11345 10.3869C6.48639 10.7599 6.96154 11.0138 7.47883 11.1167C7.99611 11.2196 8.53229 11.1668 9.01956 10.965C9.50683 10.7631 9.9233 10.4214 10.2163 9.98282C10.5093 9.54429 10.6657 9.02872 10.6657 8.5013C10.6657 7.79406 10.3848 7.11578 9.88469 6.61568C9.38459 6.11559 8.70631 5.83464 7.99907 5.83464ZM7.99907 9.83464C7.73536 9.83464 7.47757 9.75644 7.25831 9.60993C7.03904 9.46342 6.86814 9.25518 6.76723 9.01155C6.66631 8.76791 6.63991 8.49982 6.69135 8.24118C6.7428 7.98254 6.86979 7.74496 7.05626 7.55849C7.24273 7.37202 7.48031 7.24504 7.73895 7.19359C7.99759 7.14214 8.26568 7.16855 8.50931 7.26946C8.75295 7.37038 8.96118 7.54128 9.10769 7.76054C9.2542 7.97981 9.3324 8.23759 9.3324 8.5013C9.3324 8.85492 9.19192 9.19406 8.94188 9.44411C8.69183 9.69416 8.35269 9.83464 7.99907 9.83464Z" fill="#B5B5B5"/>
</svg>
