<svg width="17" height="17" viewBox="0 0 17 17" fill="none" xmlns="http://www.w3.org/2000/svg">
<path d="M6.45387 5.16639C6.45387 3.96171 7.27258 3.14299 8.47726 3.14299C9.68194 3.14299 10.5007 3.96171 10.5007 5.16639C10.5007 6.37106 9.68194 7.18978 8.47726 7.18978C7.27258 7.18978 6.45387 6.37106 6.45387 5.16639ZM5.16732 5.16639C5.16732 6.99095 6.6527 8.47633 8.47726 8.47633C10.3018 8.47633 11.7872 6.99095 11.7872 5.16639C11.7872 3.34183 10.3018 1.85645 8.47726 1.85645C6.6527 1.85645 5.16732 3.34183 5.16732 5.16639ZM3.12053 12.4997C3.12053 11.4471 5.30767 10.4763 8.47726 10.4763C11.6468 10.4763 13.834 11.4471 13.834 12.4997C13.834 13.3301 13.3077 13.8564 12.4773 13.8564H4.47726C3.64685 13.8564 3.12053 13.3301 3.12053 12.4997ZM1.83398 12.4997C1.83398 13.95 3.02697 15.143 4.47726 15.143H12.4773C13.9276 15.143 15.1205 13.95 15.1205 12.4997C15.1205 10.5114 12.0211 9.18978 8.47726 9.18978C4.9334 9.18978 1.83398 10.5114 1.83398 12.4997Z" fill="#898989"/>
</svg>
