<svg width="27" height="27" viewBox="0 0 27 27" fill="none" xmlns="http://www.w3.org/2000/svg">
<path d="M0.93934 23.5663C0.353553 24.1521 0.353553 25.1018 0.93934 25.6876C1.52513 26.2734 2.47487 26.2734 3.06066 25.6876L0.93934 23.5663ZM26.1274 1.99954C26.1274 1.17111 25.4558 0.499537 24.6274 0.499536L11.1274 0.499536C10.299 0.499536 9.62742 1.17111 9.62742 1.99954C9.62742 2.82796 10.299 3.49954 11.1274 3.49954H23.1274V15.4995C23.1274 16.328 23.799 16.9995 24.6274 16.9995C25.4558 16.9995 26.1274 16.328 26.1274 15.4995L26.1274 1.99954ZM3.06066 25.6876L25.6881 3.0602L23.5668 0.938876L0.93934 23.5663L3.06066 25.6876Z" fill="white"/>
</svg>
