<svg width="12" height="12" viewBox="0 0 12 12" fill="none" xmlns="http://www.w3.org/2000/svg">
<path d="M11.0333 2.4074C10.9636 2.3371 10.8806 2.2813 10.7893 2.24323C10.6979 2.20515 10.5998 2.18555 10.5008 2.18555C10.4018 2.18555 10.3038 2.20515 10.2124 2.24323C10.121 2.2813 10.038 2.3371 9.96832 2.4074L4.38082 8.0024L2.03332 5.6474C1.96093 5.57747 1.87547 5.52248 1.78183 5.48558C1.68819 5.44868 1.58819 5.43058 1.48756 5.43232C1.38692 5.43406 1.28762 5.45561 1.19531 5.49573C1.103 5.53585 1.0195 5.59375 0.949567 5.66615C0.879638 5.73854 0.824652 5.82399 0.787749 5.91763C0.750846 6.01128 0.732749 6.11127 0.73449 6.2119C0.736231 6.31254 0.757777 6.41185 0.797897 6.50416C0.838017 6.59646 0.895926 6.67997 0.968317 6.7499L3.84832 9.6299C3.91804 9.70019 4.00099 9.75599 4.09238 9.79406C4.18378 9.83214 4.28181 9.85174 4.38082 9.85174C4.47983 9.85174 4.57786 9.83214 4.66925 9.79406C4.76064 9.75599 4.8436 9.70019 4.91332 9.6299L11.0333 3.5099C11.1094 3.43966 11.1702 3.35443 11.2118 3.25955C11.2533 3.16468 11.2748 3.06222 11.2748 2.95865C11.2748 2.85507 11.2533 2.75262 11.2118 2.65774C11.1702 2.56287 11.1094 2.47763 11.0333 2.4074Z" fill="white"/>
</svg>
