<svg width="24" height="24" viewBox="0 0 24 24" fill="none" xmlns="http://www.w3.org/2000/svg">
<path d="M17 6C18.2632 6 19 6.73684 19 8H5C5 6.73684 5.73684 6 7 6H17ZM17 4H7C4.75439 4 3 5.75439 3 8V10H21V8C21 5.75439 19.2456 4 17 4ZM5 10H19V18C19 19.2632 18.2632 20 17 20H7C5.73684 20 5 19.2632 5 18V10ZM3 8V18C3 20.2456 4.75439 22 7 22H17C19.2456 22 21 20.2456 21 18V8H3ZM6 3V5C6 5.54386 6.45614 6 7 6C7.54386 6 8 5.54386 8 5V3C8 2.45614 7.54386 2 7 2C6.45614 2 6 2.45614 6 3ZM18 5V3C18 2.45614 17.5439 2 17 2C16.4561 2 16 2.45614 16 3V5C16 5.54386 16.4561 6 17 6C17.5439 6 18 5.54386 18 5Z" fill="#4766AF"/>
</svg>
