<svg width="14" height="14" viewBox="0 0 14 14" fill="none" xmlns="http://www.w3.org/2000/svg">
<path fill-rule="evenodd" clip-rule="evenodd" d="M6.15064 0.725288C6.43342 1.0257 6.43346 1.51281 6.15071 1.81328L2.79005 5.38451C1.14688 7.13037 0.99439 9.41904 2.44961 10.9034C3.96531 12.4494 6.15121 12.261 7.66463 10.586L7.67497 10.5748L11.9392 6.04412C12.7561 5.17613 12.7561 3.76884 11.9392 2.90084C11.1222 2.03285 9.7977 2.03285 8.98076 2.90084L8.07694 3.86115L8.07542 3.86276L4.47645 7.66407C4.20599 7.94974 4.20534 8.41448 4.475 8.701C4.7441 8.98692 5.1804 8.98692 5.4495 8.701L10.0905 3.76995C10.3733 3.46951 10.8317 3.46951 11.1145 3.76994C11.3973 4.07038 11.3973 4.55749 11.1145 4.85793L6.47349 9.78899C5.63886 10.6758 4.28565 10.6758 3.45101 9.78899C2.61463 8.90034 2.61664 7.45889 3.45549 6.57287L7.05295 2.77316L7.05446 2.77155L7.95677 1.81286C9.33924 0.343983 11.5807 0.343985 12.9631 1.81286C14.3456 3.28173 14.3456 5.66324 12.9631 7.13211L8.70403 11.6574C6.72666 13.8405 3.62708 14.2373 1.44673 12.0133C-0.750738 9.77192 -0.284091 6.47483 1.76598 4.29661C1.76596 4.29662 1.76599 4.2966 1.76598 4.29661L5.12664 0.725371C5.40939 0.424909 5.86785 0.424872 6.15064 0.725288Z" fill="#4766AF"/>
</svg>
