<svg width="16" height="16" viewBox="0 0 16 16" fill="none" xmlns="http://www.w3.org/2000/svg">
<path fill-rule="evenodd" clip-rule="evenodd" d="M3.33398 2.66634H12.6673C12.8441 2.66634 13.0137 2.73658 13.1387 2.8616C13.2637 2.98663 13.334 3.1562 13.334 3.33301V12.6663C13.334 12.8432 13.2637 13.0127 13.1387 13.1377C13.0137 13.2628 12.8441 13.333 12.6673 13.333H3.33398C3.15717 13.333 2.9876 13.2628 2.86258 13.1377C2.73756 13.0127 2.66732 12.8432 2.66732 12.6663V3.33301C2.66732 3.1562 2.73756 2.98663 2.86258 2.8616C2.9876 2.73658 3.15717 2.66634 3.33398 2.66634ZM1.33398 3.33301C1.33398 2.80257 1.5447 2.29387 1.91977 1.91879C2.29484 1.54372 2.80355 1.33301 3.33398 1.33301H12.6673C13.1978 1.33301 13.7065 1.54372 14.0815 1.91879C14.4566 2.29387 14.6673 2.80257 14.6673 3.33301V12.6663C14.6673 13.1968 14.4566 13.7055 14.0815 14.0806C13.7065 14.4556 13.1978 14.6663 12.6673 14.6663H3.33398C2.80355 14.6663 2.29484 14.4556 1.91977 14.0806C1.5447 13.7055 1.33398 13.1968 1.33398 12.6663V3.33301ZM8.00065 7.99967C6.15998 7.99967 4.66732 6.20901 4.66732 3.99967H6.00065C6.00065 5.71034 7.11398 6.66634 8.00065 6.66634C8.88732 6.66634 10.0007 5.71034 10.0007 3.99967H11.334C11.334 6.20901 9.84132 7.99967 8.00065 7.99967Z" fill="white"/>
</svg>
