<svg width="16" height="16" viewBox="0 0 16 16" fill="none" xmlns="http://www.w3.org/2000/svg">
<path d="M11.361 2.69918C10.96 2.41818 10.448 2.35118 9.9875 2.51768L5.9125 3.99968H2.5C1.673 3.99968 1 4.67268 1 5.49968V7.49968C1 8.28568 1.6095 8.92518 2.3795 8.98768L1.776 11.7032C1.6785 12.1427 1.784 12.5962 2.0655 12.9472C2.3465 13.2987 2.7665 13.4997 3.217 13.4997C3.9145 13.4997 4.507 13.0242 4.6585 12.3437L5.4015 8.99968H5.9125L9.9875 10.4817C10.154 10.5422 10.3275 10.5717 10.4995 10.5717C10.8035 10.5717 11.105 10.4792 11.361 10.3002C11.7615 10.0197 12 9.56068 12 9.07168V3.92768C12 3.43868 11.761 2.97968 11.361 2.69918ZM3.6815 12.1272C3.6335 12.3432 3.4385 12.5002 3.2165 12.5002C3.0715 12.5002 2.9355 12.4352 2.845 12.3222C2.7545 12.2092 2.7205 12.0627 2.752 11.9207L3.4005 9.00018H4.376L3.6815 12.1272ZM5.5 8.00018H2.5C2.224 8.00018 2 7.77568 2 7.50018V5.50018C2 5.22468 2.224 5.00018 2.5 5.00018H5.5V8.00018ZM11 9.07268C11 9.23818 10.9225 9.38718 10.787 9.48218C10.651 9.57718 10.485 9.59968 10.329 9.54268L6.5 8.15018V4.85018L10.329 3.45768C10.485 3.40118 10.651 3.42368 10.787 3.51818C10.9225 3.61318 11 3.76218 11 3.92768V9.07218V9.07268ZM13.0525 4.72418C12.929 4.47718 13.029 4.17668 13.276 4.05318L14.276 3.55318C14.523 3.42968 14.823 3.52968 14.947 3.77668C15.0705 4.02368 14.9705 4.32418 14.7235 4.44768L13.7235 4.94768C13.6515 4.98368 13.5755 5.00018 13.5005 5.00018C13.317 5.00018 13.1405 4.89918 13.0525 4.72368V4.72418ZM13 6.50068C13 6.22468 13.2235 6.00068 13.5 6.00068H14.5C14.7765 6.00068 15 6.22468 15 6.50068C15 6.77668 14.7765 7.00068 14.5 7.00068H13.5C13.2235 7.00068 13 6.77668 13 6.50068ZM14.9475 9.22418C14.8595 9.39968 14.6835 9.50068 14.4995 9.50068C14.4245 9.50068 14.348 9.48368 14.2765 9.44818L13.2765 8.94818C13.0295 8.82468 12.9295 8.52418 13.053 8.27718C13.1765 8.03018 13.477 7.93068 13.724 8.05368L14.724 8.55368C14.971 8.67718 15.071 8.97718 14.9475 9.22418Z" fill="white"/>
</svg>
