<svg width="16" height="16" viewBox="0 0 16 16" fill="none" xmlns="http://www.w3.org/2000/svg">
<path d="M10.6667 13.333H5.33333C4.8029 13.333 4.29419 13.1223 3.91912 12.7472C3.54405 12.3721 3.33333 11.8634 3.33333 11.333V4.66634C3.33333 4.48953 3.2631 4.31996 3.13807 4.19494C3.01305 4.06991 2.84348 3.99967 2.66667 3.99967C2.48986 3.99967 2.32029 4.06991 2.19526 4.19494C2.07024 4.31996 2 4.48953 2 4.66634V11.333C2 12.2171 2.35119 13.0649 2.97631 13.69C3.60143 14.3152 4.44928 14.6663 5.33333 14.6663H10.6667C10.8435 14.6663 11.013 14.5961 11.1381 14.4711C11.2631 14.3461 11.3333 14.1765 11.3333 13.9997C11.3333 13.8229 11.2631 13.6533 11.1381 13.5283C11.013 13.4032 10.8435 13.333 10.6667 13.333ZM14 5.95967C13.9931 5.89843 13.9796 5.83809 13.96 5.77967V5.71967C13.9279 5.65113 13.8852 5.58812 13.8333 5.53301L9.83333 1.53301C9.77822 1.48115 9.71521 1.4384 9.64667 1.40634H9.58667L9.37333 1.33301H6.66667C6.13623 1.33301 5.62753 1.54372 5.25245 1.91879C4.87738 2.29387 4.66667 2.80257 4.66667 3.33301V9.99967C4.66667 10.5301 4.87738 11.0388 5.25245 11.4139C5.62753 11.789 6.13623 11.9997 6.66667 11.9997H12C12.5304 11.9997 13.0391 11.789 13.4142 11.4139C13.7893 11.0388 14 10.5301 14 9.99967V5.99967C14 5.99967 14 5.99967 14 5.95967ZM10 3.60634L11.7267 5.33301H10.6667C10.4899 5.33301 10.3203 5.26277 10.1953 5.13775C10.0702 5.01272 10 4.84315 10 4.66634V3.60634ZM12.6667 9.99967C12.6667 10.1765 12.5964 10.3461 12.4714 10.4711C12.3464 10.5961 12.1768 10.6663 12 10.6663H6.66667C6.48986 10.6663 6.32029 10.5961 6.19526 10.4711C6.07024 10.3461 6 10.1765 6 9.99967V3.33301C6 3.1562 6.07024 2.98663 6.19526 2.8616C6.32029 2.73658 6.48986 2.66634 6.66667 2.66634H8.66667V4.66634C8.66667 5.19677 8.87738 5.70548 9.25245 6.08055C9.62753 6.45563 10.1362 6.66634 10.6667 6.66634H12.6667V9.99967Z" fill="white"/>
</svg>
