<svg width="32" height="26" viewBox="0 0 32 26" fill="none" xmlns="http://www.w3.org/2000/svg">
<rect x="-0.5" y="0.5" width="31" height="25" rx="4.5" transform="matrix(-1 0 0 1 31 0)" stroke="#4766AF"/>
<mask id="path-2-inside-1_1770_397" fill="white">
<path fill-rule="evenodd" clip-rule="evenodd" d="M12.6309 8.19887L8.20375 12.5199C7.93208 12.785 7.93208 13.215 8.20375 13.4801L12.6309 17.8011C12.9025 18.0663 13.343 18.0663 13.6147 17.8011C13.8863 17.536 13.8863 17.1061 13.6147 16.8409L10.3751 13.679H24V12.321H10.3751L13.6147 9.1591C13.8863 8.89394 13.8863 8.46403 13.6147 8.19887C13.343 7.93371 12.9025 7.93371 12.6309 8.19887Z"/>
</mask>
<path fill-rule="evenodd" clip-rule="evenodd" d="M12.6309 8.19887L8.20375 12.5199C7.93208 12.785 7.93208 13.215 8.20375 13.4801L12.6309 17.8011C12.9025 18.0663 13.343 18.0663 13.6147 17.8011C13.8863 17.536 13.8863 17.1061 13.6147 16.8409L10.3751 13.679H24V12.321H10.3751L13.6147 9.1591C13.8863 8.89394 13.8863 8.46403 13.6147 8.19887C13.343 7.93371 12.9025 7.93371 12.6309 8.19887Z" fill="#4766AF"/>
<path d="M8.20375 12.5199L6.10831 10.373L6.10831 10.373L8.20375 12.5199ZM12.6309 8.19887L14.7263 10.3458L14.7263 10.3458L12.6309 8.19887ZM8.20375 13.4801L6.10831 15.627L6.10831 15.627L8.20375 13.4801ZM10.3751 13.679L8.27966 15.8259L3.00641 10.679H10.3751V13.679ZM24 13.679H27V16.679H24V13.679ZM24 12.321V9.32102H27V12.321H24ZM10.3751 12.321V15.321H3.00641L8.27966 10.1741L10.3751 12.321ZM13.6147 9.1591L11.5192 7.01221L11.5192 7.01221L13.6147 9.1591ZM6.10831 10.373L10.5354 6.05198L14.7263 10.3458L10.2992 14.6668L6.10831 10.373ZM6.10831 15.627C4.63056 14.1847 4.63056 11.8153 6.10831 10.373L10.2992 14.6668C11.2336 13.7548 11.2336 12.2452 10.2992 11.3332L6.10831 15.627ZM10.5354 19.948L6.10831 15.627L10.2992 11.3332L14.7263 15.6542L10.5354 19.948ZM15.7101 19.948C14.273 21.3507 11.9725 21.3507 10.5354 19.948L14.7263 15.6542C13.8326 14.7819 12.413 14.7819 11.5192 15.6542L15.7101 19.948ZM15.7101 14.694C17.1878 16.1364 17.1878 18.5057 15.7101 19.948L11.5192 15.6542C10.5848 16.5663 10.5848 18.0758 11.5192 18.9878L15.7101 14.694ZM12.4705 11.5321L15.7101 14.694L11.5192 18.9878L8.27966 15.8259L12.4705 11.5321ZM24 16.679H10.3751V10.679H24V16.679ZM27 12.321V13.679H21V12.321H27ZM10.3751 9.32102H24V15.321H10.3751V9.32102ZM15.7101 11.306L12.4705 14.4679L8.27966 10.1741L11.5192 7.01221L15.7101 11.306ZM15.7101 6.05198C17.1878 7.49432 17.1878 9.86365 15.7101 11.306L11.5192 7.01221C10.5848 7.92423 10.5848 9.43374 11.5192 10.3458L15.7101 6.05198ZM10.5354 6.05198C11.9725 4.64934 14.273 4.64934 15.7101 6.05198L11.5192 10.3458C12.413 11.2181 13.8326 11.2181 14.7263 10.3458L10.5354 6.05198Z" fill="#4766AF" mask="url(#path-2-inside-1_1770_397)"/>
</svg>
