<svg width="16" height="16" viewBox="0 0 16 16" fill="none" xmlns="http://www.w3.org/2000/svg">
<path d="M11.3327 2.66634H10.666C10.666 2.31272 10.5255 1.97358 10.2755 1.72353C10.0254 1.47348 9.6863 1.33301 9.33268 1.33301H6.66602C6.31239 1.33301 5.97326 1.47348 5.72321 1.72353C5.47316 1.97358 5.33268 2.31272 5.33268 2.66634H4.66602C4.13558 2.66634 3.62687 2.87705 3.2518 3.25213C2.87673 3.6272 2.66602 4.13591 2.66602 4.66634V12.6663C2.66602 13.1968 2.87673 13.7055 3.2518 14.0806C3.62687 14.4556 4.13558 14.6663 4.66602 14.6663H11.3327C11.8631 14.6663 12.3718 14.4556 12.7469 14.0806C13.122 13.7055 13.3327 13.1968 13.3327 12.6663V4.66634C13.3327 4.13591 13.122 3.6272 12.7469 3.25213C12.3718 2.87705 11.8631 2.66634 11.3327 2.66634ZM6.66602 2.66634H9.33268V3.33301V3.99967H6.66602V2.66634ZM11.9993 12.6663C11.9993 12.8432 11.9291 13.0127 11.8041 13.1377C11.6791 13.2628 11.5095 13.333 11.3327 13.333H4.66602C4.4892 13.333 4.31964 13.2628 4.19461 13.1377C4.06959 13.0127 3.99935 12.8432 3.99935 12.6663V4.66634C3.99935 4.48953 4.06959 4.31996 4.19461 4.19494C4.31964 4.06991 4.4892 3.99967 4.66602 3.99967H5.33268C5.33268 4.3533 5.47316 4.69243 5.72321 4.94248C5.97326 5.19253 6.31239 5.33301 6.66602 5.33301H9.33268C9.6863 5.33301 10.0254 5.19253 10.2755 4.94248C10.5255 4.69243 10.666 4.3533 10.666 3.99967H11.3327C11.5095 3.99967 11.6791 4.06991 11.8041 4.19494C11.9291 4.31996 11.9993 4.48953 11.9993 4.66634V12.6663Z" fill="white"/>
</svg>
