<svg width="16" height="16" viewBox="0 0 16 16" fill="none" xmlns="http://www.w3.org/2000/svg">
<path d="M8.19935 8.14634C8.55507 7.83843 8.84038 7.4576 9.03593 7.02969C9.23148 6.60178 9.33269 6.13681 9.33268 5.66634C9.33268 4.78229 8.98149 3.93444 8.35637 3.30932C7.73125 2.6842 6.8834 2.33301 5.99935 2.33301C5.11529 2.33301 4.26745 2.6842 3.64233 3.30932C3.01721 3.93444 2.66602 4.78229 2.66602 5.66634C2.66601 6.13681 2.76722 6.60178 2.96277 7.02969C3.15832 7.4576 3.44363 7.83843 3.79935 8.14634C2.86611 8.56893 2.07433 9.25136 1.51867 10.112C0.963012 10.9727 0.666997 11.9752 0.666016 12.9997C0.666016 13.1765 0.736253 13.3461 0.861278 13.4711C0.986302 13.5961 1.15587 13.6663 1.33268 13.6663C1.50949 13.6663 1.67906 13.5961 1.80409 13.4711C1.92911 13.3461 1.99935 13.1765 1.99935 12.9997C1.99935 11.9388 2.42078 10.9214 3.17092 10.1712C3.92107 9.4211 4.93848 8.99967 5.99935 8.99967C7.06021 8.99967 8.07763 9.4211 8.82778 10.1712C9.57792 10.9214 9.99935 11.9388 9.99935 12.9997C9.99935 13.1765 10.0696 13.3461 10.1946 13.4711C10.3196 13.5961 10.4892 13.6663 10.666 13.6663C10.8428 13.6663 11.0124 13.5961 11.1374 13.4711C11.2624 13.3461 11.3327 13.1765 11.3327 12.9997C11.3317 11.9752 11.0357 10.9727 10.48 10.112C9.92437 9.25136 9.13259 8.56893 8.19935 8.14634ZM5.99935 7.66634C5.60379 7.66634 5.21711 7.54904 4.88821 7.32928C4.55931 7.10952 4.30297 6.79716 4.15159 6.43171C4.00021 6.06626 3.96061 5.66412 4.03778 5.27616C4.11495 4.8882 4.30543 4.53183 4.58514 4.25213C4.86484 3.97242 5.22121 3.78194 5.60917 3.70477C5.99713 3.6276 6.39926 3.66721 6.76472 3.81858C7.13017 3.96996 7.44253 4.2263 7.66229 4.5552C7.88205 4.8841 7.99935 5.27078 7.99935 5.66634C7.99935 6.19677 7.78864 6.70548 7.41356 7.08055C7.03849 7.45563 6.52978 7.66634 5.99935 7.66634ZM12.4927 7.87967C12.9193 7.39923 13.198 6.80571 13.2952 6.17057C13.3924 5.53542 13.304 4.88572 13.0405 4.29967C12.7771 3.71363 12.3499 3.2162 11.8103 2.86729C11.2708 2.51837 10.6419 2.33284 9.99935 2.33301C9.82254 2.33301 9.65297 2.40325 9.52794 2.52827C9.40292 2.65329 9.33268 2.82286 9.33268 2.99967C9.33268 3.17649 9.40292 3.34605 9.52794 3.47108C9.65297 3.5961 9.82254 3.66634 9.99935 3.66634C10.5298 3.66634 11.0385 3.87705 11.4136 4.25213C11.7886 4.6272 11.9993 5.13591 11.9993 5.66634C11.9984 6.0165 11.9055 6.36028 11.7301 6.66329C11.5546 6.9663 11.3026 7.21793 10.9993 7.39301C10.9005 7.45002 10.818 7.53145 10.7596 7.6295C10.7012 7.72755 10.669 7.83894 10.666 7.95301C10.6632 8.06618 10.6893 8.17821 10.7418 8.27851C10.7943 8.37882 10.8714 8.46411 10.966 8.52634L11.226 8.69967L11.3127 8.74634C12.1163 9.12749 12.7942 9.73033 13.2667 10.4839C13.7391 11.2374 13.9864 12.1103 13.9793 12.9997C13.9793 13.1765 14.0496 13.3461 14.1746 13.4711C14.2996 13.5961 14.4692 13.6663 14.646 13.6663C14.8228 13.6663 14.9924 13.5961 15.1174 13.4711C15.2424 13.3461 15.3127 13.1765 15.3127 12.9997C15.3181 11.9766 15.0619 10.9692 14.5683 10.073C14.0748 9.17692 13.3602 8.42188 12.4927 7.87967Z" fill="white"/>
</svg>
