<svg width="16" height="16" viewBox="0 0 16 16" fill="none" xmlns="http://www.w3.org/2000/svg">
<path d="M14.4725 5.80678C15.3058 4.97345 14.9258 4.00012 14.4725 3.52678L12.4725 1.52678C11.6325 0.693449 10.6658 1.07345 10.1925 1.52678L9.05914 2.66678H7.33247C6.06581 2.66678 5.33247 3.33345 4.95914 4.10012L1.99914 7.06012V9.72678L1.52581 10.1934C0.692472 11.0334 1.07247 12.0001 1.52581 12.4734L3.52581 14.4734C3.88581 14.8334 4.27247 14.9668 4.63914 14.9668C5.11247 14.9668 5.54581 14.7334 5.80581 14.4734L7.60581 12.6668H9.99914C11.1325 12.6668 11.7058 11.9601 11.9125 11.2668C12.6658 11.0668 13.0791 10.4934 13.2458 9.93345C14.2791 9.66678 14.6658 8.68678 14.6658 8.00012V6.00011H14.2725L14.4725 5.80678ZM13.3325 8.00012C13.3325 8.30012 13.2058 8.66678 12.6658 8.66678H11.9991V9.33345C11.9991 9.63345 11.8725 10.0001 11.3325 10.0001H10.6658V10.6668C10.6658 10.9668 10.5391 11.3334 9.99914 11.3334H7.05914L4.87247 13.5201C4.66581 13.7134 4.54581 13.6001 4.47247 13.5268L2.47914 11.5401C2.28581 11.3334 2.39914 11.2134 2.47247 11.1401L3.33247 10.2734V7.60678L4.66581 6.27345V7.33345C4.66581 8.14012 5.19914 9.33345 6.66581 9.33345C8.13247 9.33345 8.66581 8.14012 8.66581 7.33345H13.3325V8.00012ZM13.5258 4.86012L12.3925 6.00011H7.33247V7.33345C7.33247 7.63345 7.20581 8.00012 6.66581 8.00012C6.12581 8.00012 5.99914 7.63345 5.99914 7.33345V5.33345C5.99914 5.02678 6.11247 4.00012 7.33247 4.00012H9.60581L11.1258 2.48012C11.3325 2.28678 11.4525 2.40012 11.5258 2.47345L13.5191 4.46012C13.7125 4.66678 13.5991 4.78678 13.5258 4.86012Z" fill="white"/>
</svg>
