<svg width="16" height="16" viewBox="0 0 16 16" fill="none" xmlns="http://www.w3.org/2000/svg">
<path d="M13.5189 7.80735L13.5188 7.80751C13.4131 8.22907 13.1695 8.60321 12.8268 8.87054C12.4841 9.13786 12.0619 9.28303 11.6273 9.28301H4.66732C4.47725 9.28301 4.29496 9.35851 4.16056 9.49292C4.02616 9.62732 3.95065 9.8096 3.95065 9.99967C3.95065 10.1897 4.02616 10.372 4.16056 10.5064C4.29496 10.6408 4.47725 10.7163 4.66732 10.7163H14.0007C14.1642 10.7163 14.3211 10.7813 14.4367 10.897C14.5523 11.0126 14.6173 11.1695 14.6173 11.333C14.6173 11.4966 14.5523 11.6534 14.4367 11.7691C14.3211 11.8847 14.1642 11.9497 14.0007 11.9497H13.8807H13.8093L13.8337 12.0167C13.9406 12.3113 13.9749 12.6272 13.9338 12.9379C13.8927 13.2485 13.7773 13.5446 13.5975 13.8012C13.4177 14.0578 13.1786 14.2673 12.9007 14.4119C12.6227 14.5565 12.314 14.632 12.0007 14.632C11.6873 14.632 11.3786 14.5565 11.1006 14.4119C10.8227 14.2673 10.5836 14.0578 10.4038 13.8012C10.224 13.5446 10.1086 13.2485 10.0675 12.9379C10.0264 12.6272 10.0607 12.3113 10.1677 12.0167L10.192 11.9497H10.1207H8.54732H8.47598L8.50032 12.0167C8.60722 12.3113 8.64157 12.6272 8.60046 12.9379C8.55935 13.2485 8.444 13.5446 8.26416 13.8012C8.08432 14.0578 7.8453 14.2673 7.56734 14.4119C7.28937 14.5565 6.98065 14.632 6.66732 14.632C6.35398 14.632 6.04526 14.5565 5.7673 14.4119C5.48933 14.2673 5.25031 14.0578 5.07047 13.8012C4.89064 13.5446 4.77528 13.2485 4.73417 12.9379C4.69306 12.6272 4.72742 12.3113 4.83432 12.0167L4.85866 11.9497H4.78732H4.66732V11.9496L4.66507 11.9497C4.14788 11.973 3.64264 11.7899 3.26047 11.4406C2.87831 11.0914 2.65054 10.6046 2.62727 10.0874C2.60399 9.57024 2.78712 9.06499 3.13637 8.68283C3.48562 8.30067 3.97238 8.0729 4.48957 8.04962L4.551 8.04686L4.53576 7.98728L3.38321 3.48367L3.3436 3.16681L3.34394 3.16676L3.34253 3.16103C3.30329 3.00202 3.21077 2.86124 3.08038 2.76214C2.95018 2.66319 2.79005 2.61175 2.6266 2.61634H2.00065C1.8371 2.61634 1.68025 2.55137 1.5646 2.43572C1.44895 2.32008 1.38398 2.16322 1.38398 1.99967C1.38398 1.83612 1.44895 1.67927 1.5646 1.56363C1.68025 1.44798 1.8371 1.38301 2.00065 1.38301H2.62725C3.02954 1.38415 3.42163 1.50969 3.74977 1.74242C4.07793 1.97516 4.32607 2.3037 4.46018 2.68301L4.47196 2.71634H4.50732H14.0007V2.71637L14.0024 2.71631C14.0992 2.71293 14.1954 2.73238 14.2832 2.77309C14.371 2.81378 14.448 2.87456 14.508 2.95051C14.5656 3.0246 14.6055 3.11085 14.6247 3.2027C14.644 3.29461 14.6419 3.38969 14.6189 3.48071L13.5189 7.80735ZM13.1958 4.0118L13.2114 3.94967H13.1473H4.85398H4.78995L4.80548 4.0118L5.80548 8.0118L5.81495 8.04967H5.85398H11.6066C11.7701 8.05427 11.9302 8.00282 12.0604 7.90387C12.1908 7.80477 12.2833 7.664 12.3225 7.50499L13.1958 4.0118ZM6.26916 13.2622C6.38701 13.341 6.52558 13.383 6.66732 13.383C6.85739 13.383 7.03968 13.3075 7.17408 13.1731C7.30848 13.0387 7.38398 12.8564 7.38398 12.6663C7.38398 12.5246 7.34195 12.386 7.2632 12.2682C7.18446 12.1503 7.07253 12.0585 6.94158 12.0042C6.81062 11.95 6.66652 11.9358 6.5275 11.9634C6.38848 11.9911 6.26079 12.0594 6.16056 12.1596C6.06033 12.2598 5.99207 12.3875 5.96442 12.5265C5.93677 12.6655 5.95096 12.8096 6.0052 12.9406C6.05945 13.0716 6.1513 13.1835 6.26916 13.2622ZM11.6025 13.2622C11.7203 13.341 11.8589 13.383 12.0007 13.383C12.1907 13.383 12.373 13.3075 12.5074 13.1731C12.6418 13.0387 12.7173 12.8564 12.7173 12.6663C12.7173 12.5246 12.6753 12.386 12.5965 12.2682C12.5178 12.1503 12.4059 12.0585 12.2749 12.0042C12.144 11.95 11.9999 11.9358 11.8608 11.9634C11.7218 11.9911 11.5941 12.0594 11.4939 12.1596C11.3937 12.2598 11.3254 12.3875 11.2978 12.5265C11.2701 12.6655 11.2843 12.8096 11.3385 12.9406C11.3928 13.0716 11.4846 13.1835 11.6025 13.2622Z" fill="white" stroke="#4766AF" stroke-width="0.1"/>
</svg>
