<svg width="16" height="17" viewBox="0 0 16 17" fill="none" xmlns="http://www.w3.org/2000/svg">
<path d="M2.66732 5.83463C2.66732 4.99253 3.15855 4.5013 4.00065 4.5013H12.0007C12.8428 4.5013 13.334 4.99253 13.334 5.83463V11.168C13.334 12.0101 12.8428 12.5013 12.0007 12.5013H4.00065C3.15855 12.5013 2.66732 12.0101 2.66732 11.168V5.83463ZM1.33398 5.83463V11.168C1.33398 12.665 2.50357 13.8346 4.00065 13.8346H12.0007C13.4977 13.8346 14.6673 12.665 14.6673 11.168V5.83463C14.6673 4.33756 13.4977 3.16797 12.0007 3.16797H4.00065C2.50357 3.16797 1.33398 4.33756 1.33398 5.83463ZM14.6673 6.04516C14.6673 5.41358 14.024 5.05101 13.486 5.3668L8.52697 8.11534C8.19948 8.30247 7.80182 8.30247 7.47434 8.11534L2.51527 5.3668C1.97726 5.05101 1.33398 5.41358 1.33398 6.04516V11.168C1.33398 12.665 2.50357 13.8346 4.00065 13.8346H12.0007C13.4977 13.8346 14.6673 12.665 14.6673 11.168V6.04516ZM13.334 6.04516V11.168C13.334 12.0101 12.8428 12.5013 12.0007 12.5013H4.00065C3.15855 12.5013 2.66732 12.0101 2.66732 11.168V6.04516C2.66732 6.17382 2.56205 6.39604 2.28135 6.75861L6.81936 9.28493C7.49773 9.6592 8.50357 9.6592 9.18194 9.28493L13.7199 6.75861C13.4392 6.39604 13.334 6.17382 13.334 6.04516Z" fill="#4766AF"/>
</svg>
