<svg width="16" height="17" viewBox="0 0 16 17" fill="none" xmlns="http://www.w3.org/2000/svg">
<mask id="mask0_105_841" style="mask-type:alpha" maskUnits="userSpaceOnUse" x="0" y="0" width="16" height="17">
<rect y="0.5" width="16" height="16" fill="#D9D9D9"/>
</mask>
<g mask="url(#mask0_105_841)">
<path d="M13.9556 8.21136L13.9776 8.16699L13.9556 8.12263C13.392 6.98405 12.5767 6.07839 11.511 5.40737C10.4448 4.73609 9.27352 4.40033 7.99935 4.40033C6.72518 4.40033 5.55389 4.73609 4.48773 5.40737C3.42199 6.07839 2.60671 6.98405 2.04306 8.12263L2.0211 8.16699L2.04306 8.21136C2.60671 9.34993 3.42199 10.2556 4.48773 10.9266C5.55389 11.5979 6.72518 11.9337 7.99935 11.9337C9.27352 11.9337 10.4448 11.5979 11.511 10.9266C12.5767 10.2556 13.392 9.34993 13.9556 8.21136ZM10.0536 10.2213C9.48927 10.7856 8.80646 11.067 7.99935 11.067C7.19223 11.067 6.50943 10.7856 5.94506 10.2213C5.38069 9.65691 5.09935 8.97411 5.09935 8.16699C5.09935 7.35988 5.38069 6.67707 5.94506 6.1127C6.50943 5.54834 7.19223 5.26699 7.99935 5.26699C8.80646 5.26699 9.48927 5.54834 10.0536 6.1127C10.618 6.67707 10.8993 7.35988 10.8993 8.16699C10.8993 8.97411 10.618 9.65691 10.0536 10.2213ZM6.65364 9.5127C7.02261 9.88167 7.47313 10.067 7.99935 10.067C8.52557 10.067 8.97609 9.88167 9.34506 9.5127C9.71403 9.14374 9.89935 8.69321 9.89935 8.16699C9.89935 7.64077 9.71403 7.19025 9.34506 6.82128C8.97609 6.45231 8.52557 6.26699 7.99935 6.26699C7.47313 6.26699 7.02261 6.45231 6.65364 6.82128C6.28467 7.19025 6.09935 7.64077 6.09935 8.16699C6.09935 8.69321 6.28467 9.14374 6.65364 9.5127ZM7.99935 13.067C6.39702 13.067 4.93884 12.6202 3.6222 11.7259C2.31649 10.8391 1.36735 9.65362 0.7736 8.16699C1.36735 6.68036 2.31649 5.49485 3.6222 4.60805C4.93884 3.71383 6.39702 3.26699 7.99935 3.26699C9.60168 3.26699 11.0599 3.71383 12.3765 4.60805C13.6822 5.49485 14.6313 6.68036 15.2251 8.16699C14.6313 9.65362 13.6822 10.8391 12.3765 11.7259C11.0599 12.6202 9.60168 13.067 7.99935 13.067Z" fill="#C2C2C2" stroke="white" stroke-width="0.2"/>
<path d="M10.5 8C10.5 9.38071 9.10457 10.5 8 10.5C6.89543 10.5 5.5 9.38071 5.5 8C5.5 6.61929 6.89543 6 8 6C9.10457 6 10.5 6.61929 10.5 8Z" fill="#C2C2C2"/>
</g>
</svg>
