<svg width="24" height="25" viewBox="0 0 24 25" fill="none" xmlns="http://www.w3.org/2000/svg">
<path d="M11 17.5C7.54386 17.5 5 14.9561 5 11.5C5 8.04386 7.54386 5.5 11 5.5C14.4561 5.5 17 8.04386 17 11.5C17 14.9561 14.4561 17.5 11 17.5ZM11 19.5C15.4386 19.5 19 15.9386 19 11.5C19 7.0614 15.4386 3.5 11 3.5C6.5614 3.5 3 7.0614 3 11.5C3 15.9386 6.5614 19.5 11 19.5ZM20.7018 19.7982L16.7018 15.7982C16.5263 15.6053 16.2807 15.5 16 15.5C15.4561 15.5 15 15.9561 15 16.5C15 16.7807 15.1053 17.0263 15.2982 17.2018L19.2982 21.2018C19.4737 21.3947 19.7193 21.5 20 21.5C20.5439 21.5 21 21.0439 21 20.5C21 20.2193 20.8947 19.9737 20.7018 19.7982Z" fill="#4766AF"/>
</svg>
