<svg width="24" height="24" viewBox="0 0 24 24" fill="none" xmlns="http://www.w3.org/2000/svg">
<circle cx="12" cy="12" r="12" fill="#4766AF"/>
<path fill-rule="evenodd" clip-rule="evenodd" d="M11.9373 7.2596L16.3261 7.14839C16.5954 7.14157 16.8082 7.35436 16.8014 7.62368L16.6901 12.0125C16.6833 12.2818 16.4595 12.5057 16.1901 12.5125C15.9208 12.5193 15.708 12.3065 15.7149 12.0372L15.7962 8.82567L8.16451 16.4574C7.96924 16.6527 7.66049 16.6605 7.47487 16.4749C7.28926 16.2893 7.29709 15.9805 7.49235 15.7852L15.1241 8.15351L11.9126 8.23489C11.6432 8.24171 11.4304 8.02892 11.4373 7.7596C11.4441 7.49028 11.668 7.26642 11.9373 7.2596Z" fill="white"/>
</svg>
