<svg width="40" height="40" viewBox="0 0 40 40" fill="none" xmlns="http://www.w3.org/2000/svg">
<mask id="path-1-inside-1_256_1465" fill="white">
<path d="M20.7592 6.66634C21.8119 6.66634 22.0458 6.84178 22.1628 7.39734L22.3089 8.06985C22.5721 9.32716 23.3616 10.4383 24.7066 11.1693C24.9405 11.2862 25.0575 11.3739 25.2037 11.4617C26.5195 12.3096 27.8937 12.4266 29.0926 12.0757L29.385 11.9587C30.2914 11.6663 30.7008 11.8125 31.1394 12.6313L31.9581 14.0055C32.4551 14.8827 32.4259 15.1751 31.9581 15.5845L31.4025 16.14C30.5253 16.9587 29.9698 18.1283 29.999 19.6196C29.999 19.8535 29.999 20.1166 29.999 20.3506C29.9405 21.6956 30.4084 22.9529 31.4025 23.8886L31.6657 24.1225C32.3674 24.7658 32.4259 25.1459 31.9288 25.9938L31.1686 27.3681C30.6715 28.216 30.4084 28.333 29.7651 28.1283L29.0633 27.9237C27.8937 27.5728 26.5487 27.6897 25.2329 28.5377C25.116 28.6254 24.999 28.6839 24.7066 28.8301C23.3616 29.5611 22.6013 30.643 22.3089 31.871L22.2505 32.1927C22.075 33.0991 21.7534 33.333 20.7592 33.333H19.2388C18.2154 33.333 17.9815 33.1576 17.8645 32.5435L17.6598 31.8125C17.3967 30.6722 16.6072 29.5611 15.2622 28.8008C15.0575 28.7131 14.9405 28.6254 14.7066 28.5084C13.4493 27.6897 12.075 27.5728 10.9054 27.9237L10.613 28.0406C9.70661 28.333 9.29725 28.1868 8.85865 27.3681L8.03994 25.9938C7.54286 25.1166 7.5721 24.8242 8.03994 24.4149L8.5955 23.8593C9.47269 23.0406 10.0282 21.871 9.999 20.3798C9.999 20.1459 9.999 19.8827 9.999 19.6488C10.0575 18.3038 9.58965 17.0465 8.5955 16.1108L8.33234 15.8769C7.63058 15.2336 7.5721 14.8535 8.06918 14.0055L8.82941 12.6313C9.35573 11.7833 9.61889 11.6371 10.2037 11.8125L10.8762 12.0465C12.075 12.4266 13.4785 12.3096 14.7943 11.4617C14.882 11.4032 15.0575 11.3155 15.3206 11.1693C16.6364 10.4383 17.4259 9.32716 17.6891 8.09909L17.7475 7.80669C17.923 6.90026 18.2446 6.66634 19.2388 6.66634H20.7592ZM20.7592 3.33301H19.2388C16.9288 3.33301 14.9698 4.82424 14.4727 7.16342L14.4142 7.45582C14.3265 7.83593 14.2388 7.95289 13.6832 8.24529C13.5078 8.36225 13.1861 8.53769 12.9522 8.68389C12.4844 8.97628 12.3382 9.00552 11.8996 8.88856L11.2271 8.65465C9.35573 8.06985 7.19199 8.85932 5.96392 10.9938L5.1452 12.3681C4.00485 14.3856 4.38497 16.7541 6.08088 18.333L6.31479 18.5669C6.69491 18.9178 6.69491 18.9763 6.66567 19.5318C6.66567 19.8242 6.66567 20.1459 6.66567 20.4383C6.69491 21.0231 6.66567 21.1108 6.31479 21.4617L5.75924 21.9587C4.35573 23.2745 3.94637 25.526 5.17444 27.6313L5.93468 29.0055C7.10427 31.0523 9.41421 31.9003 11.6072 31.1985L11.8996 31.14C12.3382 30.9938 12.4551 31.0231 12.9522 31.3155C13.1861 31.4909 13.4493 31.6371 13.7125 31.7541C14.2388 32.0465 14.3265 32.1634 14.4434 32.6313L14.5896 33.3038C15.0282 35.1459 16.7534 36.6663 19.2388 36.6663H20.7592C23.0692 36.6663 25.0282 35.1751 25.5253 32.8359L25.5838 32.5728C25.6715 32.1342 25.7592 32.0465 26.2856 31.7541C26.5195 31.6371 26.8411 31.4617 27.075 31.3155C27.5721 31.0231 27.6891 30.9938 28.1277 31.14L28.8294 31.3447C30.6423 31.9003 32.806 31.14 34.0341 29.0055L34.8528 27.6313C35.9932 25.6137 35.613 23.2453 33.9171 21.6663L33.6832 21.4324C33.3031 21.0815 33.3031 21.0231 33.3323 20.4675C33.3323 20.1751 33.3323 19.8535 33.3323 19.5611C33.3031 18.9763 33.3323 18.8886 33.6832 18.5377L34.2388 18.0406C35.6423 16.7248 36.0516 14.4734 34.8236 12.3681L34.0633 10.9938C32.8937 8.94704 30.5838 8.09909 28.3908 8.80084L28.0984 8.85932C27.6891 9.00552 27.5429 8.97628 27.0458 8.68389C26.7826 8.50845 26.5195 8.36225 26.344 8.24529C25.7592 7.92365 25.6715 7.86517 25.5838 7.42658L25.4376 6.69558C25.0282 4.82424 23.2446 3.33301 20.7592 3.33301ZM13.3323 19.9997C13.3323 23.6839 16.3148 26.6663 19.999 26.6663C23.6832 26.6663 26.6657 23.6839 26.6657 19.9997C26.6657 16.3155 23.6832 13.333 19.999 13.333C16.3148 13.333 13.3323 16.3155 13.3323 19.9997ZM16.6657 19.9997C16.6657 17.9529 17.9522 16.6663 19.999 16.6663C22.0458 16.6663 23.3323 17.9529 23.3323 19.9997C23.3323 22.0465 22.0458 23.333 19.999 23.333C17.9522 23.333 16.6657 22.0465 16.6657 19.9997Z"/>
</mask>
<path d="M20.7592 6.66634C21.8119 6.66634 22.0458 6.84178 22.1628 7.39734L22.3089 8.06985C22.5721 9.32716 23.3616 10.4383 24.7066 11.1693C24.9405 11.2862 25.0575 11.3739 25.2037 11.4617C26.5195 12.3096 27.8937 12.4266 29.0926 12.0757L29.385 11.9587C30.2914 11.6663 30.7008 11.8125 31.1394 12.6313L31.9581 14.0055C32.4551 14.8827 32.4259 15.1751 31.9581 15.5845L31.4025 16.14C30.5253 16.9587 29.9698 18.1283 29.999 19.6196C29.999 19.8535 29.999 20.1166 29.999 20.3506C29.9405 21.6956 30.4084 22.9529 31.4025 23.8886L31.6657 24.1225C32.3674 24.7658 32.4259 25.1459 31.9288 25.9938L31.1686 27.3681C30.6715 28.216 30.4084 28.333 29.7651 28.1283L29.0633 27.9237C27.8937 27.5728 26.5487 27.6897 25.2329 28.5377C25.116 28.6254 24.999 28.6839 24.7066 28.8301C23.3616 29.5611 22.6013 30.643 22.3089 31.871L22.2505 32.1927C22.075 33.0991 21.7534 33.333 20.7592 33.333H19.2388C18.2154 33.333 17.9815 33.1576 17.8645 32.5435L17.6598 31.8125C17.3967 30.6722 16.6072 29.5611 15.2622 28.8008C15.0575 28.7131 14.9405 28.6254 14.7066 28.5084C13.4493 27.6897 12.075 27.5728 10.9054 27.9237L10.613 28.0406C9.70661 28.333 9.29725 28.1868 8.85865 27.3681L8.03994 25.9938C7.54286 25.1166 7.5721 24.8242 8.03994 24.4149L8.5955 23.8593C9.47269 23.0406 10.0282 21.871 9.999 20.3798C9.999 20.1459 9.999 19.8827 9.999 19.6488C10.0575 18.3038 9.58965 17.0465 8.5955 16.1108L8.33234 15.8769C7.63058 15.2336 7.5721 14.8535 8.06918 14.0055L8.82941 12.6313C9.35573 11.7833 9.61889 11.6371 10.2037 11.8125L10.8762 12.0465C12.075 12.4266 13.4785 12.3096 14.7943 11.4617C14.882 11.4032 15.0575 11.3155 15.3206 11.1693C16.6364 10.4383 17.4259 9.32716 17.6891 8.09909L17.7475 7.80669C17.923 6.90026 18.2446 6.66634 19.2388 6.66634H20.7592ZM20.7592 3.33301H19.2388C16.9288 3.33301 14.9698 4.82424 14.4727 7.16342L14.4142 7.45582C14.3265 7.83593 14.2388 7.95289 13.6832 8.24529C13.5078 8.36225 13.1861 8.53769 12.9522 8.68389C12.4844 8.97628 12.3382 9.00552 11.8996 8.88856L11.2271 8.65465C9.35573 8.06985 7.19199 8.85932 5.96392 10.9938L5.1452 12.3681C4.00485 14.3856 4.38497 16.7541 6.08088 18.333L6.31479 18.5669C6.69491 18.9178 6.69491 18.9763 6.66567 19.5318C6.66567 19.8242 6.66567 20.1459 6.66567 20.4383C6.69491 21.0231 6.66567 21.1108 6.31479 21.4617L5.75924 21.9587C4.35573 23.2745 3.94637 25.526 5.17444 27.6313L5.93468 29.0055C7.10427 31.0523 9.41421 31.9003 11.6072 31.1985L11.8996 31.14C12.3382 30.9938 12.4551 31.0231 12.9522 31.3155C13.1861 31.4909 13.4493 31.6371 13.7125 31.7541C14.2388 32.0465 14.3265 32.1634 14.4434 32.6313L14.5896 33.3038C15.0282 35.1459 16.7534 36.6663 19.2388 36.6663H20.7592C23.0692 36.6663 25.0282 35.1751 25.5253 32.8359L25.5838 32.5728C25.6715 32.1342 25.7592 32.0465 26.2856 31.7541C26.5195 31.6371 26.8411 31.4617 27.075 31.3155C27.5721 31.0231 27.6891 30.9938 28.1277 31.14L28.8294 31.3447C30.6423 31.9003 32.806 31.14 34.0341 29.0055L34.8528 27.6313C35.9932 25.6137 35.613 23.2453 33.9171 21.6663L33.6832 21.4324C33.3031 21.0815 33.3031 21.0231 33.3323 20.4675C33.3323 20.1751 33.3323 19.8535 33.3323 19.5611C33.3031 18.9763 33.3323 18.8886 33.6832 18.5377L34.2388 18.0406C35.6423 16.7248 36.0516 14.4734 34.8236 12.3681L34.0633 10.9938C32.8937 8.94704 30.5838 8.09909 28.3908 8.80084L28.0984 8.85932C27.6891 9.00552 27.5429 8.97628 27.0458 8.68389C26.7826 8.50845 26.5195 8.36225 26.344 8.24529C25.7592 7.92365 25.6715 7.86517 25.5838 7.42658L25.4376 6.69558C25.0282 4.82424 23.2446 3.33301 20.7592 3.33301ZM13.3323 19.9997C13.3323 23.6839 16.3148 26.6663 19.999 26.6663C23.6832 26.6663 26.6657 23.6839 26.6657 19.9997C26.6657 16.3155 23.6832 13.333 19.999 13.333C16.3148 13.333 13.3323 16.3155 13.3323 19.9997ZM16.6657 19.9997C16.6657 17.9529 17.9522 16.6663 19.999 16.6663C22.0458 16.6663 23.3323 17.9529 23.3323 19.9997C23.3323 22.0465 22.0458 23.333 19.999 23.333C17.9522 23.333 16.6657 22.0465 16.6657 19.9997Z" fill="white" stroke="#4766AF" mask="url(#path-1-inside-1_256_1465)"/>
</svg>
